<svg xmlns="http://www.w3.org/2000/svg" width="480" height="272" viewBox="0 0 480 272">
  <defs>
    <linearGradient id="greenBtn" x1="0" y1="0" x2="0" y2="1">
      <stop offset="0%" stop-color="#4CAF4C"/>
      <stop offset="50%" stop-color="#2D8B2D"/>
      <stop offset="100%" stop-color="#1A6B1A"/>
    </linearGradient>
    <linearGradient id="orangeBtn" x1="0" y1="0" x2="0" y2="1">
      <stop offset="0%" stop-color="#E88020"/>
      <stop offset="50%" stop-color="#D06000"/>
      <stop offset="100%" stop-color="#A04800"/>
    </linearGradient>
    <linearGradient id="greyBtn" x1="0" y1="0" x2="0" y2="1">
      <stop offset="0%" stop-color="#707070"/>
      <stop offset="50%" stop-color="#555555"/>
      <stop offset="100%" stop-color="#404040"/>
    </linearGradient>
    <filter id="bevel">
      <feDropShadow dx="1" dy="1" stdDeviation="0.5" flood-color="#000" flood-opacity="0.4"/>
    </filter>
    <!-- Pencil icon path -->
    <symbol id="editIcon" viewBox="0 0 12 12">
      <path d="M9.5 1.5l1 1-6.5 6.5-1.5 0.5 0.5-1.5z" fill="none" stroke="#888" stroke-width="0.8"/>
      <path d="M8.5 2.5l1 1" fill="none" stroke="#888" stroke-width="0.8"/>
    </symbol>
  </defs>

  <!-- Background -->
  <rect width="480" height="272" fill="#2A2A2A"/>

  <!-- Title Bar -->
  <rect x="0" y="0" width="480" height="28" fill="#7A5020"/>
  <rect x="0" y="27" width="480" height="1" fill="#5A3818"/>
  <text x="12" y="19" font-family="Arial, sans-serif" font-size="15" font-weight="bold" fill="white">SYS SET</text>
  <text x="100" y="19" font-family="Arial, sans-serif" font-size="10" fill="#DDB878">System Settings</text>

  <!-- BACK button (top right) -->
  <rect x="420" y="4" width="52" height="20" rx="3" fill="#404040"/>
  <rect x="421" y="5" width="50" height="18" rx="2" fill="url(#greyBtn)"/>
  <rect x="421" y="5" width="50" height="1" fill="#888" opacity="0.4"/>
  <rect x="421" y="5" width="1" height="18" fill="#777" opacity="0.3"/>
  <text x="446" y="17" font-family="Arial, sans-serif" font-size="9" fill="white" text-anchor="middle" font-weight="bold">BACK</text>

  <!-- ============ FORM FIELDS ============ -->

  <!-- Row 1: Length Setpoint -->
  <text x="20" y="54" font-family="Arial, sans-serif" font-size="11" fill="#CCCCCC">Length Setpoint:</text>
  <rect x="160" y="40" width="120" height="22" rx="2" fill="#000000" stroke="#666" stroke-width="1"/>
  <rect x="161" y="41" width="118" height="1" fill="#222"/>
  <text x="220" y="56" font-family="Arial, sans-serif" font-size="14" fill="white" text-anchor="middle" font-weight="bold">622</text>
  <text x="286" y="56" font-family="Arial, sans-serif" font-size="10" fill="#999">mm</text>
  <use href="#editIcon" x="282" y="42" width="10" height="10" opacity="0.6"/>
  <text x="310" y="56" font-family="Arial, sans-serif" font-size="8" fill="#888">D1 [4097]</text>

  <!-- Row 2: Quantity Target -->
  <text x="20" y="82" font-family="Arial, sans-serif" font-size="11" fill="#CCCCCC">Quantity Target:</text>
  <rect x="160" y="68" width="120" height="22" rx="2" fill="#000000" stroke="#666" stroke-width="1"/>
  <rect x="161" y="69" width="118" height="1" fill="#222"/>
  <text x="220" y="84" font-family="Arial, sans-serif" font-size="14" fill="white" text-anchor="middle" font-weight="bold">10</text>
  <text x="286" y="84" font-family="Arial, sans-serif" font-size="10" fill="#999">pcs</text>
  <use href="#editIcon" x="282" y="70" width="10" height="10" opacity="0.6"/>
  <text x="310" y="84" font-family="Arial, sans-serif" font-size="8" fill="#888">D3 [4099]</text>

  <!-- Row 3: Feed Speed -->
  <text x="20" y="110" font-family="Arial, sans-serif" font-size="11" fill="#CCCCCC">Feed Speed:</text>
  <rect x="160" y="96" width="120" height="22" rx="2" fill="#000000" stroke="#666" stroke-width="1"/>
  <rect x="161" y="97" width="118" height="1" fill="#222"/>
  <text x="220" y="112" font-family="Arial, sans-serif" font-size="14" fill="white" text-anchor="middle" font-weight="bold">50</text>
  <text x="286" y="112" font-family="Arial, sans-serif" font-size="10" fill="#999">mm/s</text>
  <use href="#editIcon" x="282" y="98" width="10" height="10" opacity="0.6"/>
  <text x="316" y="112" font-family="Arial, sans-serif" font-size="8" fill="#888">D5 [4101]</text>

  <!-- Row 4: Cut Dwell Time -->
  <text x="20" y="138" font-family="Arial, sans-serif" font-size="11" fill="#CCCCCC">Cut Dwell Time:</text>
  <rect x="160" y="124" width="120" height="22" rx="2" fill="#000000" stroke="#666" stroke-width="1"/>
  <rect x="161" y="125" width="118" height="1" fill="#222"/>
  <text x="220" y="140" font-family="Arial, sans-serif" font-size="14" fill="white" text-anchor="middle" font-weight="bold">500</text>
  <text x="286" y="140" font-family="Arial, sans-serif" font-size="10" fill="#999">ms</text>
  <use href="#editIcon" x="282" y="126" width="10" height="10" opacity="0.6"/>
  <text x="310" y="140" font-family="Arial, sans-serif" font-size="8" fill="#888">D9 [4105]</text>

  <!-- Row 5: Encoder Calibration -->
  <text x="20" y="166" font-family="Arial, sans-serif" font-size="11" fill="#CCCCCC">Encoder Cal:</text>
  <rect x="160" y="152" width="120" height="22" rx="2" fill="#000000" stroke="#666" stroke-width="1"/>
  <rect x="161" y="153" width="118" height="1" fill="#222"/>
  <text x="220" y="168" font-family="Arial, sans-serif" font-size="14" fill="white" text-anchor="middle" font-weight="bold">100</text>
  <text x="286" y="168" font-family="Arial, sans-serif" font-size="10" fill="#999">p/mm</text>
  <use href="#editIcon" x="282" y="154" width="10" height="10" opacity="0.6"/>
  <text x="318" y="168" font-family="Arial, sans-serif" font-size="8" fill="#888">D10 [4106]</text>

  <!-- Separator line -->
  <line x1="10" y1="186" x2="470" y2="186" stroke="#444" stroke-width="1"/>

  <!-- ============ BOTTOM BUTTONS ============ -->

  <!-- SAVE & BACK button -->
  <rect x="10" y="196" width="150" height="38" rx="4" fill="#1A6B1A"/>
  <rect x="11" y="197" width="148" height="36" rx="3" fill="url(#greenBtn)" filter="url(#bevel)"/>
  <rect x="11" y="197" width="148" height="1" fill="#6CDF6C" opacity="0.5"/>
  <rect x="11" y="197" width="1" height="36" fill="#5CC55C" opacity="0.4"/>
  <rect x="158" y="197" width="1" height="36" fill="#0A400A" opacity="0.6"/>
  <rect x="11" y="232" width="148" height="1" fill="#0A400A" opacity="0.6"/>
  <text x="85" y="220" font-family="Arial, sans-serif" font-size="12" fill="white" text-anchor="middle" font-weight="bold">SAVE &amp; BACK</text>

  <!-- RESET COUNTER button -->
  <rect x="170" y="196" width="150" height="38" rx="4" fill="#A04800"/>
  <rect x="171" y="197" width="148" height="36" rx="3" fill="url(#orangeBtn)" filter="url(#bevel)"/>
  <rect x="171" y="197" width="148" height="1" fill="#FF9840" opacity="0.5"/>
  <rect x="171" y="197" width="1" height="36" fill="#E88828" opacity="0.4"/>
  <rect x="318" y="197" width="1" height="36" fill="#703400" opacity="0.6"/>
  <rect x="171" y="232" width="148" height="1" fill="#703400" opacity="0.6"/>
  <text x="245" y="220" font-family="Arial, sans-serif" font-size="12" fill="white" text-anchor="middle" font-weight="bold">RESET COUNTER</text>
  <text x="245" y="230" font-family="Arial, sans-serif" font-size="7" fill="#FFD0A0" text-anchor="middle">writes D4=0</text>

  <!-- ============ REFERENCE ROW ============ -->
  <rect x="0" y="242" width="480" height="30" fill="#222222"/>
  <line x1="0" y1="242" x2="480" y2="242" stroke="#444" stroke-width="1"/>
  <text x="10" y="255" font-family="Arial, sans-serif" font-size="8" fill="#666">MODBUS REGISTER MAP:</text>
  <text x="10" y="266" font-family="Arial, sans-serif" font-size="7" fill="#888">D1=4097 (Length)  D3=4099 (Qty Target)  D4=4100 (Qty Cur)  D5=4101 (Speed)  D9=4105 (Dwell)  D10=4106 (Enc Cal)</text>
</svg>